<svg height="512pt" viewBox="0 0 512 512" width="512pt" xmlns="http://www.w3.org/2000/svg"><path d="m207.648438 0h-121.296876c-25.835937 0-46.851562 20.863281-46.851562 46.507812v93.941407c0 25.644531 21.015625 46.507812 46.851562 46.507812h46.875c.089844 0 .179688-.003906.269532-.007812 2.078125-.070313 5.058594.269531 6.832031.820312-.488281.878907-1.414063 2.25-3.167969 4.167969-3.457031 3.78125-2.769531 7.492188-2.316406 8.910156.898438 2.816406 3.230469 4.882813 6.242188 5.523438 2.25.480468 4.589843.710937 6.953124.710937 10.765626 0 22.003907-4.75 27.203126-12.078125 1.785156-2.519531 2.84375-5.25 3.167968-8.050781h29.242188c25.832031 0 46.851562-20.859375 46.851562-46.503906v-93.941407c-.003906-25.644531-21.019531-46.507812-46.855468-46.507812zm31.851562 140.449219c0 17.371093-14.289062 31.507812-31.851562 31.507812h-38.371094c-2.710938 0-5.210938 1.464844-6.539063 3.824219-1.328125 2.367188-1.273437 5.261719.136719 7.578125.964844 1.582031.691406 2.175781.132812 2.964844-1.316406 1.851562-4.300781 3.585937-7.832031 4.65625 1.050781-3.429688.890625-6.644531-.488281-9.625-3.90625-8.441407-15.34375-9.417969-20.410156-9.417969-.445313 0-.84375.007812-1.179688.019531h-46.746094c-17.5625 0-31.851562-14.136719-31.851562-31.507812v-93.941407c0-17.371093 14.289062-31.507812 31.851562-31.507812h121.296876c17.566406 0 31.851562 14.136719 31.851562 31.507812zm0 0"/><path d="m333.59375 186.957031c.320312 2.800781 1.378906 5.527344 3.167969 8.046875 5.199219 7.332032 16.4375 12.082032 27.199219 12.078125 2.363281 0 4.707031-.226562 6.957031-.710937 3.007812-.640625 5.339843-2.707032 6.238281-5.519532.457031-1.417968 1.140625-5.128906-2.3125-8.910156-1.753906-1.917968-2.679688-3.289062-3.167969-4.167968 1.6875-.519532 4.527344-.894532 6.832031-.820313.089844 0 .179688.003906.269532.003906h46.871094c25.835937 0 46.851562-20.863281 46.851562-46.507812v-93.941407c0-25.644531-21.019531-46.507812-46.851562-46.507812h-9.648438c-4.144531 0-7.5 3.355469-7.5 7.5s3.355469 7.5 7.5 7.5h9.648438c17.5625 0 31.851562 14.136719 31.851562 31.507812v93.941407c0 17.371093-14.289062 31.507812-31.851562 31.507812h-46.746094c-4.179688-.132812-17.34375.21875-21.589844 9.398438-1.378906 2.980469-1.539062 6.195312-.488281 9.625-3.535157-1.070313-6.519531-2.804688-7.832031-4.65625-.558594-.789063-.832032-1.382813.132812-2.964844 1.410156-2.316406 1.464844-5.210937.136719-7.578125-1.328125-2.363281-3.828125-3.824219-6.539063-3.824219h-38.371094c-17.5625 0-31.851562-14.136719-31.851562-31.507812v-93.941407c0-17.371093 14.289062-31.507812 31.851562-31.507812h80.023438c4.144531 0 7.5-3.355469 7.5-7.5s-3.355469-7.5-7.5-7.5h-80.023438c-25.832031 0-46.851562 20.863281-46.851562 46.507812v93.941407c0 25.644531 21.019531 46.507812 46.851562 46.507812zm0 0"/><path d="m191.5 353h-27.785156c3.027344-5.085938 5.351562-10.546875 6.917968-16.28125.113282 0 .226563.011719.339844.011719 17.109375 0 31.027344-15.027344 31.027344-33.5 0-15.386719-9.828125-28.527344-23.054688-32.359375-.152343-4.320313-.617187-7.664063-.855468-9.148438.011718-3-.316406-12.964844-4.667969-23.15625-4.695313-11.007812-14.855469-24.246094-36.683594-26.5-5.46875-5.421875-19.605469-13.253906-53.941406-7.625-4.085937.671875-6.859375 4.527344-6.1875 8.617188.667969 4.085937 4.535156 6.855468 8.613281 6.1875 31.210938-5.117188 39.882813 2.382812 41.152344 3.722656 1.027344 2.726562 3.238281 3.679688 6.230469 3.824219 13.222656.636719 22.003906 6.28125 26.847656 17.265625 3.898437 8.839844 3.636719 17.867187 3.632813 17.929687-.023438.566407.019531 1.148438.125 1.699219.023437.140625 2.476562 13.683594-1.375 24.480469-5.546876-4.984375-8.796876-18.789063-9.554688-26.578125-.230469-2.421875-1.625-4.582032-3.734375-5.792969-13.910156-7.976563-17.066406-16.089844-17.40625-17.070313-.671875-2.964843-3.03125-5.074218-6.039063-5.578124-3.035156-.5-6.03125 1.0625-7.617187 3.691406-5.792969 9.59375-32.742187 16.300781-50.027344 17.996094-3.566406.347656-6.390625 3.179687-6.738281 6.75-.757812 7.789062-3.996094 21.578124-9.546875 26.582031-1.28125-3.578125-1.863281-7.457031-2.074219-11.050781 0-.007813 0-.015626 0-.023438 0-.070312-.007812-.136719-.011718-.207031-.390626-7.148438.683593-13.101563.699218-13.183594.070313-.359375.113282-.722656.125-1.089844.007813-.179687.871094-17.957031 12.121094-30.882812 2.71875-3.125 2.390625-7.863281-.734375-10.582031-3.125-2.714844-7.859375-2.390626-10.582031.734374-13.566406 15.589844-15.511719 35.855469-15.757813 39.546876-.21875 1.304687-.742187 4.8125-.902343 9.441406-13.226563 3.839844-23.054688 16.976562-23.054688 32.359375 0 18.472656 13.921875 33.5 31.03125 33.5.113281 0 .222656-.011719.335938-.011719 1.566406 5.734375 3.894531 11.195312 6.921874 16.28125h-27.789062c-11.855469 0-21.5 9.644531-21.5 21.5v116c0 11.855469 9.644531 21.5 21.5 21.5h170c11.855469 0 21.5-9.644531 21.5-21.5v-116c0-11.855469-9.644531-21.5-21.5-21.5zm-4.5-49.769531c0 9.425781-6.144531 17.210937-14.046875 18.34375.085937-2.371094.03125-1.761719.046875-23.085938 2.65625-3.035156 3.90625-7.546875 4.789062-11.964843 5.425782 2.980468 9.210938 9.371093 9.210938 16.707031zm-161 0c0-7.335938 3.785156-13.726563 9.214844-16.707031.863281 4.296874 2.167968 8.957031 4.785156 11.953124.015625 21.085938-.035156 20.769532.046875 23.097657-7.902344-1.132813-14.046875-8.917969-14.046875-18.34375zm29.625 23.894531c-.414062-2.597656-.625-5.292969-.625-8.015625v-16.179687c1.699219-.492188 3.316406-1.292969 4.765625-2.410157 9.542969-7.351562 13.511719-22.78125 15.039063-31.472656 11.039062-1.558594 33.863281-5.859375 47.503906-15.992187 3.1875 4.148437 8.082031 9.042968 15.527344 13.789062 1.210937 8 4.988281 25.652344 15.394531 33.664062 1.453125 1.125 3.070312 1.921876 4.769531 2.414063v16.1875c0 2.722656-.210938 5.417969-.628906 8.039063-1.511719 9.648437-5.695313 18.519531-12.140625 25.851562h-77.460938c-6.445312-7.332031-10.628906-16.207031-12.144531-25.875zm142.375 163.375c0 3.585938-2.914062 6.5-6.5 6.5h-170c-3.585938 0-6.5-2.914062-6.5-6.5v-116c0-3.585938 2.914062-6.5 6.5-6.5h170c3.585938 0 6.5 2.914062 6.5 6.5zm0 0"/><path d="m108.238281 406.964844c-15.164062 0-27.5 12.335937-27.5 27.5 0 15.164062 12.335938 27.5 27.5 27.5 15.164063 0 27.5-12.335938 27.5-27.5 0-15.164063-12.335937-27.5-27.5-27.5zm0 40c-6.890625 0-12.5-5.605469-12.5-12.5 0-6.894532 5.609375-12.5 12.5-12.5 6.894531 0 12.5 5.605468 12.5 12.5 0 6.894531-5.605469 12.5-12.5 12.5zm0 0"/><path d="m504.5 455.5c4.144531 0 7.5-3.355469 7.5-7.5v-73.5c0-11.855469-9.644531-21.5-21.5-21.5h-27.78125c3.027344-5.082031 5.355469-10.546875 6.921875-16.28125.109375 0 .222656.011719.332031.011719 17.113282 0 31.03125-15.027344 31.03125-33.5 0-15.390625-9.828125-28.527344-23.0625-32.363281-.148437-4.316407-.613281-7.660157-.851562-9.144532.007812-3-.320313-12.964844-4.667969-23.15625-4.699219-11.007812-14.855469-24.246094-36.6875-26.5-5.480469-5.433594-19.667969-13.289062-54.199219-7.582031-18.730468 3.105469-32.9375 14.148437-41.085937 31.941406-5.292969 11.5625-6.316407 22.414063-6.492188 25-.21875 1.300781-.742187 4.808594-.902343 9.445313-13.226563 3.839844-23.050782 16.976562-23.050782 32.359375 0 18.472656 13.917969 33.5 31.019532 33.5.117187 0 .230468-.011719.347656-.011719 1.566406 5.738281 3.890625 11.199219 6.917968 16.28125h-27.789062c-11.855469 0-21.5 9.644531-21.5 21.5v116c0 11.855469 9.644531 21.5 21.5 21.5h170c11.855469 0 21.5-9.644531 21.5-21.5v-10.5c0-4.144531-3.355469-7.5-7.5-7.5s-7.5 3.355469-7.5 7.5v10.5c0 3.585938-2.914062 6.5-6.5 6.5h-170c-3.585938 0-6.5-2.914062-6.5-6.5v-116c0-3.585938 2.914062-6.5 6.5-6.5h170c3.585938 0 6.5 2.914062 6.5 6.5v73.5c0 4.144531 3.355469 7.5 7.5 7.5zm-18.496094-152.269531c0 9.425781-6.140625 17.210937-14.046875 18.34375.085938-2.375.03125-1.707031.046875-23.09375 2.621094-2.996094 3.878906-7.421875 4.785156-11.957031 5.429688 2.976562 9.214844 9.371093 9.214844 16.707031zm-137.21875-39.527344c.066406-.347656.109375-.71875.125-1.066406.074219-1.546875 2.179688-37.90625 35.074219-43.355469 31.398437-5.191406 40.117187 2.34375 41.390625 3.6875 1.027344 2.726562 3.234375 3.679688 6.230469 3.820312 13.222656.636719 22.003906 6.285157 26.847656 17.265626 3.898437 8.84375 3.636719 17.871093 3.632813 17.933593-.023438.574219.019531 1.148438.125 1.714844.027343.136719 2.445312 13.734375-1.375 24.464844-5.546876-4.984375-8.796876-18.789063-9.558594-26.578125-.226563-2.421875-1.621094-4.582032-3.730469-5.792969-13.910156-7.976563-17.066406-16.089844-17.40625-17.070313-.671875-2.964843-3.03125-5.074218-6.039063-5.574218-3.027343-.503906-6.027343 1.058594-7.617187 3.6875-5.789063 9.59375-32.742187 16.300781-50.023437 17.996094-3.570313.347656-6.394532 3.179687-6.742188 6.75-.757812 7.789062-3.996094 21.578124-9.546875 26.582031-3.859375-10.796875-1.410156-24.34375-1.386719-24.464844zm-23.78125 39.527344c0-7.335938 3.785156-13.726563 9.210938-16.707031.90625 4.523437 2.214844 9.015624 4.789062 11.960937.019532 21.167969-.035156 20.753906.050782 23.089844-7.90625-1.128907-14.050782-8.914063-14.050782-18.34375zm29.628906 23.894531c-.417968-2.597656-.628906-5.292969-.628906-8.015625v-16.179687c1.699219-.492188 3.316406-1.292969 4.761719-2.410157 9.542969-7.351562 13.511719-22.78125 15.039063-31.472656 11.039062-1.558594 33.863281-5.859375 47.503906-15.992187 3.1875 4.148437 8.085937 9.046874 15.527344 13.789062 1.210937 8 4.988281 25.652344 15.394531 33.664062 1.453125 1.125 3.074219 1.925782 4.773437 2.417969v16.183594c0 2.722656-.210937 5.417969-.628906 8.039063-1.511719 9.660156-5.699219 18.53125-12.148438 25.851562h-77.453124c-6.445313-7.324219-10.628907-16.199219-12.140626-25.875zm0 0"/><path d="m379.738281 434.464844c0 15.164062 12.335938 27.5 27.5 27.5 15.164063 0 27.5-12.335938 27.5-27.5 0-15.164063-12.335937-27.5-27.5-27.5-15.164062 0-27.5 12.335937-27.5 27.5zm40 0c0 6.894531-5.605469 12.5-12.5 12.5-6.890625 0-12.5-5.605469-12.5-12.5 0-6.894532 5.609375-12.5 12.5-12.5 6.894531 0 12.5 5.605468 12.5 12.5zm0 0"/><path d="m119.445312 105.75-17.363281-14.992188 17.363281-14.996093c3.136719-2.707031 3.484376-7.441407.777344-10.578125-2.707031-3.132813-7.445312-3.480469-10.578125-.773438l-23.941406 20.667969c-1.648437 1.425781-2.597656 3.5-2.597656 5.679687 0 2.179688.949219 4.25 2.597656 5.675782l23.941406 20.671875c1.414063 1.222656 3.160157 1.820312 4.894531 1.820312 2.105469 0 4.199219-.878906 5.683594-2.597656 2.707032-3.136719 2.359375-7.871094-.777344-10.578125zm0 0"/><path d="m209.179688 85.078125-23.941407-20.667969c-3.132812-2.707031-7.871093-2.359375-10.578125.773438-2.707031 3.136718-2.359375 7.871094.777344 10.578125l17.363281 14.992187-17.363281 14.992188c-3.136719 2.707031-3.484375 7.445312-.777344 10.578125 1.484375 1.71875 3.578125 2.601562 5.679688 2.601562 1.738281 0 3.480468-.601562 4.898437-1.824219l23.941407-20.667968c1.648437-1.425782 2.597656-3.5 2.597656-5.679688 0-2.179687-.949219-4.25-2.597656-5.675781zm0 0"/><path d="m166.496094 42.203125c-3.804688-1.644531-8.21875.109375-9.859375 3.910156l-36 83.332031c-1.644531 3.804688.105469 8.21875 3.910156 9.859376.96875.421874 1.976563.617187 2.96875.617187 2.902344 0 5.667969-1.691406 6.890625-4.527344l36-83.332031c1.644531-3.800781-.109375-8.214844-3.910156-9.859375zm0 0"/><path d="m339.15625 40.757812v25.191407c-19.3125 3.539062-34 20.484375-34 40.808593 0 22.882813 18.617188 41.5 41.5 41.5 20.320312 0 37.265625-14.6875 40.808594-34h25.191406c4.144531 0 7.5-3.359374 7.5-7.5v-66c0-4.144531-3.355469-7.5-7.5-7.5h-66c-4.140625 0-7.5 3.355469-7.5 7.5zm15 40.585938c8.589844 2.539062 15.371094 9.320312 17.910156 17.914062h-17.910156zm-7.5 51.914062c-14.613281 0-26.5-11.890624-26.5-26.5 0-12.011718 8.03125-22.171874 19-25.414062v25.414062c0 4.140626 3.355469 7.5 7.5 7.5h25.410156c-3.242187 10.96875-13.402344 19-25.410156 19zm58.5-85v51h-17.691406c-3.097656-16.878906-16.429688-30.214843-33.308594-33.308593v-17.691407zm0 0"/></svg>